<svg xmlns="http://www.w3.org/2000/svg" xmlns:xlink="http://www.w3.org/1999/xlink" viewBox="0 0 24 24" version="1.1" x="0px" y="0px"><title>icon/circle-tag-solid</title><desc>Created with Sketch.</desc><g stroke="none" stroke-width="1" fill="none" fill-rule="evenodd"><path d="M17,7 L12,7 L6,13 L10,14 L11,18 L17,12 L17,7 Z M22,12 C22,17.522 17.522,22 12,22 C6.478,22 2,17.522 2,12 C2,6.478 6.478,2 12,2 C17.522,2 22,6.478 22,12 L22,12 Z M13.5,9.5 C13.5,8.947 13.947,8.5 14.5,8.5 C15.053,8.5 15.5,8.947 15.5,9.5 C15.5,10.053 15.053,10.5 14.5,10.5 C13.947,10.5 13.5,10.053 13.5,9.5 L13.5,9.5 Z" fill="#000000"/></g></svg>